Coordinates
version=1
nRows=18
nColumns=22
inDegrees=yes

Units are S.I. units (second, meters, Newtons, ...)
If the header above contains a line with 'inDegrees', this indicates whether rotational values are in degrees (yes) or radians (no).

endheader
time	pelvis_tilt	pelvis_list	pelvis_rotation	pelvis_tx	pelvis_ty	pelvis_tz	hip_flexion_r	hip_adduction_r	hip_rotation_r	knee_angle_r	ankle_angle_r	subtalar_angle_r	hip_flexion_l	hip_adduction_l	hip_rotation_l	knee_angle_l	ankle_angle_l	subtalar_angle_l	lumbar_extension	lumbar_bending	lumbar_rotation
      2.08000000	      5.28136527	     -2.11723140	     34.99826469	      0.20420213	      0.89518889	      0.39460965	    -14.07160019	      0.28212647	     -5.96134613	    -20.26846780	     12.35176444	     10.24077905	     23.61967854	     -9.91121576	    -41.02227865	    -16.64325982	      6.53503553	     -3.50940296	     -9.30073634	     -0.62831511	     15.41296127
      2.09000000	      5.38029552	     -1.73072464	     34.92614721	      0.21179417	      0.89455138	      0.38561731	    -14.73464324	     -0.26335096	     -5.50060296	    -21.04228711	     11.79148371	     10.81030551	     23.19317104	     -9.99471935	    -41.37778949	    -18.07796314	      6.37667716	     -4.89969081	     -9.40898914	     -1.04606487	     15.62760013
      2.10000000	      5.41892239	     -1.27429610	     34.88235713	      0.21933951	      0.89413936	      0.37620263	    -15.32704173	     -0.92276648	     -5.05978845	    -21.93137721	     11.06633539	     11.41619639	     22.70635877	     -9.91161906	    -41.78278222	    -19.45089767	      6.12537899	     -6.54685158	     -9.47180785	     -1.53468922	     15.80635268
      2.11000000	      5.38466464	     -0.76283759	     34.89951861	      0.22678020	      0.89394912	      0.36637555	    -15.81369541	     -1.67705818	     -4.65482022	    -22.95615971	     10.13389425	     12.08495665	     22.19634207	     -9.64628090	    -42.19215814	    -20.71255834	      5.79765599	     -8.43242628	     -9.47591985	     -2.08368194	     15.89511318
      2.12000000	      5.28593225	     -0.23514523	     34.99517787	      0.23405491	      0.89398329	      0.35616844	    -16.16230584	     -2.47860398	     -4.27933241	    -24.12710429	      8.95922870	     12.80621363	     21.69909214	     -9.23135007	    -42.53085413	    -21.85141399	      5.43239742	    -10.42982908	     -9.41353790	     -2.64615045	     15.90215688
      2.13000000	      5.13888606	      0.27040855	     35.17711976	      0.24110351	      0.89423596	      0.34565496	    -16.33360994	     -3.27435069	     -3.90626936	    -25.47808332	      7.51637176	     13.55386138	     21.24307993	     -8.70890030	    -42.70368190	    -22.88048113	      5.07792656	    -12.36489249	     -9.29081855	     -3.17272402	     15.82087442
      2.14000000	      4.95601158	      0.72587830	     35.45708631	      0.24789243	      0.89470162	      0.33489445	    -16.30192256	     -4.01932621	     -3.50640221	    -27.02475639	      5.77403870	     14.32060391	     20.84455827	     -8.11453508	    -42.65170814	    -23.81770497	      4.78351578	    -14.13579102	     -9.11059370	     -3.63175356	     15.65587567
      2.15000000	      4.75480948	      1.10570554	     35.83335911	      0.25439300	      0.89537069	      0.32399211	    -16.03664284	     -4.66892824	     -3.04464576	    -28.79436147	      3.71650049	     15.06423673	     20.50924978	     -7.49089905	    -42.34970428	    -24.68055437	      4.59634149	    -15.62015632	     -8.88382127	     -3.99465336	     15.42615462
      2.16000000	      4.54651452	      1.40207679	     36.30742691	      0.26057384	      0.89622376	      0.31304156	    -15.52073554	     -5.19709518	     -2.49461171	    -30.80545367	      1.35572071	     15.74972431	     20.23016262	     -6.85731335	    -41.80987434	    -25.46673241	      4.49992540	    -16.77608790	     -8.62701836	     -4.25648735	     15.13594140
      2.17000000	      4.34308374	      1.61562196	     36.86746812	      0.26643947	      0.89722823	      0.30213882	    -14.75297501	     -5.58338453	     -1.81980558	    -33.05810617	     -1.26748533	     16.37183278	     19.98777591	     -6.22984923	    -41.07124692	    -26.17120493	      4.54025381	    -17.63637713	     -8.35610745	     -4.41924930	     14.79903022
      2.18000000	      4.13743014	      1.74248930	     37.51420133	      0.27196186	      0.89831246	      0.29135740	    -13.71822290	     -5.81502965	     -1.01152279	    -35.54998602	     -4.09121048	     16.93983896	     19.78397905	     -5.61001475	    -40.17734557	    -26.77503055	      4.69072613	    -18.23879461	     -8.06716869	     -4.48914351	     14.40317714
      2.19000000	      3.94028532	      1.81481369	     38.24232227	      0.27715715	      0.89943995	      0.28077482	    -12.45092300	     -5.90984593	     -0.13247226	    -38.26949458	     -7.01179745	     17.36086749	     19.58713227	     -4.99178593	    -39.17452352	    -27.28449379	      4.88019126	    -18.55501230	     -7.79663431	     -4.50468284	     13.97373659
      2.20000000	      3.74433368	      1.83686415	     39.02619369	      0.28204585	      0.90053537	      0.27044195	    -10.95906536	     -5.87176509	      0.83071589	    -41.18840405	     -9.90273136	     17.65313210	     19.38599948	     -4.37823522	    -38.13310096	    -27.68349130	      5.15871018	    -18.66031737	     -7.53830833	     -4.47381279	     13.49730628
      2.21000000	      3.54966405	      1.84419536	     39.85541244	      0.28667231	      0.90155560	      0.26036587	     -9.29956869	     -5.74094343	      1.80544148	    -44.25239291	    -12.63196291	     17.75798284	     19.15759571	     -3.75625024	    -37.09778246	    -27.99107916	      5.49299351	    -18.58561858	     -7.31113633	     -4.43829979	     12.99685903
      2.22000000	      3.36285838	      1.86176653	     40.70502428	      0.29107343	      0.90248614	      0.25055244	     -7.51990012	     -5.55526484	      2.73891442	    -47.41023866	    -15.06794483	     17.64270491	     18.86548810	     -3.12073665	    -36.12602239	    -28.19318542	      5.88674384	    -18.37842983	     -7.13604256	     -4.41583059	     12.48406841
      2.23000000	      3.18609669	      1.91392327	     41.55639692	      0.29526863	      0.90332217	      0.24096263	     -5.67466594	     -5.35706236	      3.59534630	    -50.58602414	    -17.08700934	     17.30193019	     18.48650247	     -2.46215955	    -35.25561656	    -28.29710141	      6.33553901	    -18.08465235	     -7.02736969	     -4.41947551	     11.97885849
      2.24000000	      3.01669015	      2.02177143	     42.39351694	      0.29932262	      0.90411279	      0.23156128	     -3.81564935	     -5.18197131	      4.36586901	    -53.69686646	    -18.61462899	     16.77443241	     17.98435497	     -1.76070050	    -34.50411104	    -28.26250706	      6.78582539	    -17.75328289	     -6.98808240	     -4.46777550	     11.47261714
      2.25000000	      2.85271104	      2.18522742	     43.21294808	      0.30323025	      0.90486504	      0.22232154	     -1.96681302	     -5.04792708	      5.04533572	    -56.68049918	    -19.61104574	     16.11637245	     17.36879909	     -1.02406132	    -33.87865260	    -28.11476208	      7.25240315	    -17.40377319	     -7.01746745	     -4.55653222	     10.98808663
